<svg viewBox="-102 -102 582 582" preserveAspectRatio="xMidYMid meet" xmlns="http://www.w3.org/2000/svg">
  <defs>
    <linearGradient id="bluetopgrad" x1="50%" x2="50%" y1="0%" y2="100%">
      <stop offset="0%" style="stop-color:#55CDF3;stop-opacity:1" />
      <stop offset="100%" style="stop-color:#288AED;stop-opacity:1" />
    </linearGradient>
    <linearGradient id="loopinnergrad" x1="100%" x2="0%" y1="0%" y2="100%">
      <stop offset="0%" style="stop-color:#1E5CDD;stop-opacity:1" />
      <stop offset="100%" style="stop-color:#2D70CB;stop-opacity:1" />
    </linearGradient>
    <linearGradient id="yellowgrad" x1="0%" x2="100%" y1="50%" y2="50%">
      <stop offset="0%" style="stop-color:#FFC401;stop-opacity:1" />
      <stop offset="100%" style="stop-color:#FAE309;stop-opacity:1" />
    </linearGradient>
    <linearGradient id="orangetailgrad" x1="0%" x2="100%" y1="50%" y2="50%">
      <stop offset="0%" style="stop-color:#FD7503;stop-opacity:1" />
      <!-- 
      <stop offset="100%" style="stop-color:#FD9701;stop-opacity:1" />
      -->
      <stop offset="100%" style="stop-color:#FFC401;stop-opacity:1" />
    </linearGradient>
    <linearGradient id="bluebottomgrad" x1="50%" x2="50%" y1="0%" y2="100%">
      <stop offset="0%" style="stop-color:#288AED;stop-opacity:1" />
      <stop offset="100%" style="stop-color:#5643D6;stop-opacity:1" />
    </linearGradient>
    <linearGradient id="magentaarcgrad" x1="50%" x2="50%" y1="0%" y2="100%">
      <stop offset="0%" style="stop-color:#4F50F3;stop-opacity:1" />
      <stop offset="100%" style="stop-color:#9741F4;stop-opacity:1" />
    </linearGradient>
  </defs>
  <g>
    <path name="Purple Tail" fill="url(#bluebottomgrad)" d="M 160,480 v -320 h 160 v 160 a 160,160 0 0 1 -160,160 Z"/>


    <path name="Orange Tail" fill="url(#orangetailgrad)" d="M 0,320 h 320 v -160 h -160 a 160,160 0 0 0 -160,160 Z"/>
    <path name="Orange Center Rectangle" fill="#FE7A02" d="M 160,160 v 160 h 160 v -160 Z"/>
    <path name="Orange Center Arc" fill="#FF7101" d="M 320,160 h -160 a 160,160 0 0 0 160,160 Z"/>


    <path name="Yellow Part" fill="url(#yellowgrad)" d="M 320,160 v 160 A 160,160 0 0 0 433.1370848,46.8629152 Z"/>
    <path name="Yellow-Orange Shadow" fill="#00000012" d="M 0,320 h 320 A 160,160 0 0 0 433.1370848,46.8629152 A 113.1370848,116.8629152 0 0 1 353.1370848,240 L 320,240 L 160,240 A 160,80 0 0 0 0,320 Z"/>


    <path name="Light Blue Part" fill="url(#bluetopgrad)" d="M 320,160 L 433.1370848,46.8629152 A 160,160 0 0 0 160,160 Z"/>


    <path name="Loop Outer Base" fill="#2256A7" d="M 320,160 h 66.2741699796952 a 66.2741699796952,66.2741699796952 0 1 0 -66.2741699796952,-66.2741699796952 Z"/>
    <path name="Loop Square Base" fill="#234D7E" d="M 320,160 h 33.1370849898476 v -33.1370849898476 h -33.1370849898476 Z"/>
    <path name="Loop Inner Base" fill="url(#loopinnergrad)" d="M 353.1370849898476,126.86291501015239 h 46.862915010152406 a 46.862915010152406,46.862915010152406 0 1 0 -46.862915010152406,-46.862915010152406 Z"/>


    <path name="Magenta Tail Piece" fill="#8A43F5" d="M 160,480 a 160,160 0 0 0 113.13708498984761,-46.86291501015239 a 160,160 0 0 0 -113.13708498984761,-46.86291501015239 Z"/>
  </g>
  <!-- This SVG was made by ZellaSoft for Julian's Penguin Store based on his and Vlad's original design. -->
</svg>